<svg 
 xmlns="http://www.w3.org/2000/svg"
 xmlns:xlink="http://www.w3.org/1999/xlink"
 width="21px" height="24px">
<path fill-rule="evenodd"  fill="rgb(40, 33, 11)"
 d="M19.500,20.000 L13.000,20.000 L13.000,21.500 C13.000,22.879 11.878,24.000 10.500,24.000 C9.122,24.000 8.000,22.879 8.000,21.500 L8.000,20.000 L1.500,20.000 C0.673,20.000 0.000,19.327 0.000,18.500 L0.000,16.369 C0.000,15.695 0.462,15.111 1.150,14.915 C3.137,14.346 3.561,11.778 4.001,6.459 C4.260,3.336 6.103,-0.000 10.500,-0.000 C14.897,-0.000 16.740,3.336 16.998,6.459 C17.438,11.778 17.863,14.346 19.851,14.915 C20.538,15.111 21.000,15.695 21.000,16.369 L21.000,18.500 C21.000,19.327 20.327,20.000 19.500,20.000 ZM9.000,21.500 C9.000,22.327 9.673,23.000 10.500,23.000 C11.327,23.000 12.000,22.327 12.000,21.500 L12.000,20.000 L9.000,20.000 L9.000,21.500 ZM20.000,16.369 C20.000,16.095 19.772,15.933 19.576,15.876 C16.845,15.095 16.438,11.820 16.002,6.541 C15.894,5.241 15.179,1.000 10.500,1.000 C5.821,1.000 5.106,5.241 4.998,6.541 C4.562,11.820 4.155,15.095 1.425,15.876 C1.229,15.933 1.000,16.095 1.000,16.369 L1.000,18.500 C1.000,18.775 1.224,19.000 1.500,19.000 L8.500,19.000 L12.500,19.000 L19.500,19.000 C19.776,19.000 20.000,18.775 20.000,18.500 L20.000,16.369 Z"/>
</svg>