<svg xmlns="http://www.w3.org/2000/svg" xmlns:xlink="http://www.w3.org/1999/xlink" width="24px" height="19px">
	<path fill-rule="evenodd" fill="rgb(51, 45, 24)" d="M22.500,19.000 L22.471,19.000 L18.500,19.000 L5.500,19.000 L1.529,19.000 L1.500,19.000 C0.673,19.000 0.000,18.327 0.000,17.500 L0.000,17.471 L0.000,1.529 L0.000,1.500 C0.000,0.673 0.673,0.000 1.500,0.000 L1.529,0.000 L5.500,0.000 L18.500,0.000 L22.471,0.000 L22.500,0.000 C23.327,0.000 24.000,0.673 24.000,1.500 L24.000,1.529 L24.000,17.471 L24.000,17.500 C24.000,18.327 23.327,19.000 22.500,19.000 ZM5.000,1.000 L1.529,1.000 C1.237,1.000 1.000,1.237 1.000,1.529 L1.000,6.000 L5.000,6.000 L5.000,1.000 ZM5.000,7.000 L1.000,7.000 L1.000,12.000 L5.000,12.000 L5.000,7.000 ZM5.000,13.000 L1.000,13.000 L1.000,17.471 C1.000,17.763 1.237,18.000 1.529,18.000 L5.000,18.000 L5.000,13.000 ZM22.471,18.000 C22.763,18.000 23.000,17.763 23.000,17.471 L23.000,13.000 L19.000,13.000 L19.000,18.000 L22.471,18.000 ZM18.000,1.000 L6.000,1.000 L6.000,18.000 L18.000,18.000 L18.000,1.000 ZM23.000,1.529 C23.000,1.237 22.763,1.000 22.471,1.000 L19.000,1.000 L19.000,6.000 L23.000,6.000 L23.000,1.529 ZM19.000,7.000 L19.000,12.000 L23.000,12.000 L23.000,7.000 L19.000,7.000 ZM9.820,13.884 C9.729,13.961 9.615,14.000 9.500,14.000 C9.428,14.000 9.356,13.984 9.288,13.953 C9.112,13.870 9.000,13.694 9.000,13.500 L9.000,4.500 C9.000,4.315 9.102,4.147 9.264,4.059 C9.426,3.973 9.623,3.981 9.777,4.084 L15.777,8.084 C15.908,8.172 15.991,8.315 15.999,8.474 C16.008,8.631 15.941,8.783 15.820,8.884 L9.820,13.884 ZM10.000,5.434 L10.000,12.433 L14.665,8.545 L10.000,5.434 Z" />
</svg>
