<svg 
 xmlns="http://www.w3.org/2000/svg"
 xmlns:xlink="http://www.w3.org/1999/xlink"
 width="24px" height="24px">
<path fill-rule="evenodd"  fill="rgb(40, 33, 11)"
 d="M23.795,23.853 C23.698,23.951 23.570,24.000 23.443,24.000 C23.315,24.000 23.187,23.951 23.090,23.853 L15.801,16.551 C14.120,18.068 11.904,19.000 9.469,19.000 C4.240,19.000 -0.013,14.738 -0.013,9.500 C-0.013,4.262 4.240,-0.000 9.469,-0.000 C14.697,-0.000 18.951,4.262 18.951,9.500 C18.951,11.940 18.021,14.160 16.507,15.844 L23.795,23.147 C23.991,23.342 23.991,23.658 23.795,23.853 ZM9.469,1.000 C4.791,1.000 0.985,4.813 0.985,9.500 C0.985,14.187 4.791,18.000 9.469,18.000 C11.807,18.000 13.926,17.048 15.463,15.510 C15.463,15.509 15.463,15.508 15.464,15.507 C15.465,15.506 15.466,15.506 15.467,15.505 C17.002,13.966 17.953,11.842 17.953,9.500 C17.953,4.813 14.147,1.000 9.469,1.000 Z"/>
</svg>