<svg 
 xmlns="http://www.w3.org/2000/svg"
 xmlns:xlink="http://www.w3.org/1999/xlink"
 width="23px" height="26px">
<path fill-rule="evenodd"  fill="rgb(200, 200, 200)"
 d="M14.609,6.546 C14.265,6.546 13.940,6.474 13.645,6.350 L9.411,8.902 C9.673,9.267 9.827,9.707 9.827,10.182 C9.827,10.531 9.737,10.858 9.589,11.154 L12.950,13.095 C13.380,12.700 13.963,12.454 14.609,12.454 C15.929,12.454 17.000,13.472 17.000,14.727 C17.000,15.982 15.929,17.000 14.609,17.000 C13.288,17.000 12.218,15.982 12.218,14.727 C12.218,14.579 12.235,14.435 12.264,14.294 L8.579,12.166 C8.238,12.344 7.852,12.454 7.436,12.454 C6.115,12.454 5.045,11.437 5.045,10.182 C5.045,10.164 5.050,10.147 5.050,10.129 L4.994,10.096 L5.066,9.983 C5.067,9.968 5.069,9.954 5.070,9.939 L5.038,9.887 L5.078,9.863 C5.243,8.760 6.230,7.909 7.436,7.909 C7.681,7.909 7.913,7.954 8.136,8.020 L12.528,5.372 C12.337,5.045 12.218,4.674 12.218,4.273 C12.218,3.017 13.288,2.000 14.609,2.000 C15.929,2.000 17.000,3.017 17.000,4.273 C17.000,5.528 15.929,6.546 14.609,6.546 Z"/>
</svg>