<svg
  xmlns="http://www.w3.org/2000/svg"
  xmlns:xlink="http://www.w3.org/1999/xlink"
  width="23px" height="17px">
  <path fill-rule="evenodd"  fill="rgb(96, 96, 96)"
        d="M21.522,17.000 L1.477,17.000 C0.663,17.000 0.000,16.337 0.000,15.522 L0.000,1.478 C0.000,0.663 0.663,0.000 1.477,0.000 L21.522,0.000 C22.337,0.000 23.000,0.663 23.000,1.478 L23.000,15.522 C23.000,16.337 22.337,17.000 21.522,17.000 ZM22.000,1.478 C22.000,1.214 21.786,1.000 21.522,1.000 L1.477,1.000 C1.214,1.000 1.000,1.214 1.000,1.478 L1.000,15.522 C1.000,15.786 1.214,16.000 1.477,16.000 L21.522,16.000 C21.786,16.000 22.000,15.786 22.000,15.522 L22.000,1.478 ZM12.421,9.417 C12.151,9.628 11.825,9.733 11.500,9.733 C11.175,9.733 10.850,9.628 10.579,9.417 L2.193,2.894 C1.975,2.726 1.935,2.411 2.106,2.193 C2.274,1.974 2.590,1.935 2.807,2.105 L11.192,8.628 C11.374,8.769 11.626,8.769 11.808,8.628 L20.193,2.105 C20.409,1.935 20.724,1.974 20.895,2.193 C21.064,2.411 21.025,2.726 20.807,2.894 L12.421,9.417 Z"/>
</svg>
