<svg 
 xmlns="http://www.w3.org/2000/svg"
 xmlns:xlink="http://www.w3.org/1999/xlink"
 width="14px" height="25px">
<path fill-rule="evenodd"  fill="rgb(230, 231, 232)"
 d="M0.308,11.778 L12.303,0.279 C12.490,0.099 12.735,-0.000 12.995,-0.000 C13.001,-0.000 13.008,-0.000 13.014,-0.000 C13.282,0.005 13.532,0.115 13.716,0.308 C13.902,0.500 14.000,0.754 13.994,1.021 C13.989,1.288 13.880,1.537 13.687,1.722 L2.444,12.500 L13.687,23.278 C13.880,23.463 13.989,23.712 13.994,23.979 C14.000,24.246 13.902,24.499 13.718,24.690 C13.531,24.887 13.267,25.000 12.996,25.000 C12.736,25.000 12.490,24.901 12.305,24.722 L0.308,13.222 C0.112,13.035 -0.000,12.771 -0.000,12.500 C-0.000,12.229 0.112,11.965 0.308,11.778 ZM12.996,24.500 L12.996,24.500 L12.996,24.500 L12.996,24.500 Z"/>
</svg>