<svg 
 xmlns="http://www.w3.org/2000/svg"
 xmlns:xlink="http://www.w3.org/1999/xlink"
 width="5px" height="23px">
<path fill-rule="evenodd"  fill="rgb(230, 231, 232)"
 d="M2.500,-0.000 C3.881,-0.000 5.000,1.119 5.000,2.500 C5.000,3.881 3.881,5.000 2.500,5.000 C1.119,5.000 0.000,3.881 0.000,2.500 C0.000,1.119 1.119,-0.000 2.500,-0.000 Z"/>
<path fill-rule="evenodd"  fill="rgb(230, 231, 232)"
 d="M2.500,9.000 C3.881,9.000 5.000,10.119 5.000,11.500 C5.000,12.881 3.881,14.000 2.500,14.000 C1.119,14.000 0.000,12.881 0.000,11.500 C0.000,10.119 1.119,9.000 2.500,9.000 Z"/>
<path fill-rule="evenodd"  fill="rgb(230, 231, 232)"
 d="M2.500,18.000 C3.881,18.000 5.000,19.119 5.000,20.500 C5.000,21.881 3.881,23.000 2.500,23.000 C1.119,23.000 0.000,21.881 0.000,20.500 C0.000,19.119 1.119,18.000 2.500,18.000 Z"/>
</svg>