<svg 
 xmlns="http://www.w3.org/2000/svg"
 xmlns:xlink="http://www.w3.org/1999/xlink"
 width="24px" height="24px">
<path fill-rule="evenodd"  fill="rgb(40, 33, 11)"
 d="M20.233,20.707 C20.199,20.753 20.156,20.789 20.107,20.821 C17.969,22.788 15.127,24.000 12.000,24.000 C8.873,24.000 6.031,22.788 3.893,20.822 C3.844,20.790 3.801,20.753 3.767,20.707 C1.453,18.518 -0.000,15.429 -0.000,12.000 C-0.000,5.383 5.383,-0.000 12.000,-0.000 C18.617,-0.000 24.000,5.383 24.000,12.000 C24.000,15.429 22.547,18.518 20.233,20.707 ZM19.208,20.290 C17.887,17.678 15.109,16.000 12.000,16.000 C8.891,16.000 6.113,17.678 4.792,20.290 C6.725,21.972 9.242,23.000 12.000,23.000 C14.758,23.000 17.275,21.972 19.208,20.290 ZM12.000,1.000 C5.935,1.000 1.000,5.935 1.000,12.000 C1.000,14.936 2.163,17.600 4.044,19.575 C5.585,16.782 8.619,15.000 12.000,15.000 C15.381,15.000 18.415,16.782 19.956,19.575 C21.837,17.600 23.000,14.936 23.000,12.000 C23.000,5.935 18.065,1.000 12.000,1.000 ZM11.993,12.199 C11.749,12.199 11.504,12.177 11.259,12.133 C9.492,11.813 8.000,9.935 8.000,8.028 L8.000,6.972 C8.000,5.065 9.492,3.186 11.259,2.867 C12.447,2.654 13.650,2.967 14.563,3.729 C15.476,4.492 16.000,5.611 16.000,6.800 L16.000,8.200 C16.000,9.389 15.476,10.508 14.563,11.271 C13.839,11.876 12.931,12.199 11.993,12.199 ZM15.000,6.800 C15.000,5.908 14.607,5.068 13.922,4.496 C13.374,4.039 12.709,3.800 12.007,3.800 C11.819,3.800 11.628,3.816 11.437,3.851 C10.139,4.086 9.000,5.544 9.000,6.972 L9.000,8.028 C9.000,9.456 10.139,10.914 11.437,11.148 C12.346,11.316 13.228,11.083 13.922,10.504 C14.607,9.932 15.000,9.092 15.000,8.200 L15.000,6.800 Z"/>
</svg>