<svg 
 xmlns="http://www.w3.org/2000/svg"
 xmlns:xlink="http://www.w3.org/1999/xlink"
 width="23px" height="24px">
<path fill-rule="evenodd"  fill="rgb(40, 33, 11)"
 d="M22.787,11.871 C22.690,11.969 22.563,12.018 22.435,12.018 C22.308,12.018 22.180,11.969 22.083,11.871 L20.941,10.727 L20.941,23.496 C20.941,23.772 20.718,23.995 20.443,23.995 L14.466,23.995 C14.191,23.995 13.968,23.772 13.968,23.496 L13.968,15.012 L8.988,15.012 L8.988,23.496 C8.988,23.772 8.765,23.995 8.489,23.995 L2.513,23.995 C2.238,23.995 2.015,23.772 2.015,23.496 L2.015,10.727 L0.873,11.871 C0.678,12.066 0.363,12.066 0.169,11.871 C-0.026,11.676 -0.026,11.361 0.169,11.166 L2.160,9.170 C2.160,9.170 2.161,9.169 2.162,9.169 L11.126,0.186 C11.320,-0.009 11.636,-0.009 11.830,0.186 L20.794,9.169 C20.795,9.169 20.795,9.170 20.796,9.170 L22.787,11.166 C22.982,11.361 22.982,11.676 22.787,11.871 ZM11.478,1.245 L3.011,9.729 L3.011,22.997 L7.991,22.997 L7.991,14.513 C7.991,14.237 8.214,14.014 8.489,14.014 L14.466,14.014 C14.741,14.014 14.964,14.237 14.964,14.513 L14.964,22.997 L19.945,22.997 L19.945,9.729 L11.478,1.245 Z"/>
</svg>